<svg width="143" height="143" viewBox="0 0 143 143" fill="none" xmlns="http://www.w3.org/2000/svg">
<g id="Frame 93" filter="url(#filter0_dd_1352_290)">
<rect x="9.5" y="0.0970459" width="124" height="124" rx="41.0443" fill="#83CD29" shape-rendering="crispEdges"/>
<g id="Group 1">
<path id="Vector" d="M71.5 103.989C70.2764 103.989 69.0743 103.692 68.0145 103.127L56.9231 97.0618C55.2678 96.206 56.0744 95.9037 56.6218 95.7272C58.3823 95.2248 60.0679 94.5211 61.6395 93.6326C61.7711 93.5763 61.916 93.5521 62.0605 93.562C62.205 93.572 62.3445 93.6158 62.4655 93.6894L70.9882 98.3664C71.1469 98.444 71.3237 98.4845 71.5032 98.4845C71.6828 98.4845 71.8596 98.444 72.0183 98.3664L105.254 80.6459C105.409 80.5598 105.538 80.4379 105.627 80.2921C105.716 80.1462 105.763 79.9815 105.762 79.814V44.367C105.762 44.1969 105.715 44.0296 105.625 43.8813C105.535 43.733 105.405 43.6086 105.247 43.5202L72.0118 25.8146C71.8551 25.7331 71.6783 25.6903 71.4984 25.6903C71.3185 25.6903 71.1417 25.7331 70.985 25.8146L37.7689 43.5262C37.6105 43.6127 37.4789 43.7356 37.387 43.8829C37.2951 44.0302 37.2459 44.197 37.2442 44.367V79.7991C37.2446 79.9662 37.2931 80.1301 37.3848 80.2742C37.4764 80.4183 37.6079 80.5373 37.7657 80.619L46.8811 85.4785C51.8211 87.7586 54.8466 85.0715 54.8466 82.3725V47.3893C54.8466 47.1512 54.949 46.9228 55.1313 46.7545C55.3135 46.5861 55.5607 46.4916 55.8184 46.4916H60.0296C60.2873 46.4916 60.5345 46.5861 60.7167 46.7545C60.899 46.9228 61.0014 47.1512 61.0014 47.3893V82.3755C61.0014 88.4648 57.4122 91.9509 51.1603 91.9509C48.4632 91.9943 45.8083 91.328 43.5058 90.0298L34.7693 85.4007C33.7087 84.8302 32.8287 84.0126 32.2171 83.0297C31.6055 82.0467 31.2837 80.9328 31.2838 79.7991V44.367C31.2807 43.2315 31.6011 42.1153 32.2129 41.1304C32.8247 40.1455 33.7064 39.3268 34.7693 38.7564L68.008 21.0299C69.0787 20.4888 70.2796 20.2052 71.5 20.2052C72.7205 20.2052 73.9213 20.4888 74.992 21.0299L108.227 38.7564C109.288 39.3258 110.168 40.1422 110.78 41.1241C111.393 42.106 111.715 43.219 111.716 44.3521V79.7991C111.714 80.9328 111.391 82.0463 110.779 83.029C110.167 84.0118 109.288 84.8294 108.227 85.4007L74.992 103.127C73.9303 103.693 72.7258 103.99 71.5 103.989Z" fill="white"/>
<path id="Vector_2" d="M65.1949 67.9426C65.1949 67.7045 65.2973 67.4762 65.4796 67.3078C65.6618 67.1395 65.909 67.0449 66.1667 67.0449H70.4653C70.695 67.0456 70.917 67.1214 71.0919 67.2589C71.2669 67.3964 71.3834 67.5866 71.4209 67.796C72.0688 71.8386 74.0124 73.8764 82.8007 73.8764C89.8008 73.8764 92.7843 72.4131 92.7843 68.9809C92.7843 67.003 91.9388 65.5338 81.0579 64.5493C71.9619 63.7174 66.3384 61.8562 66.3384 55.1414C66.3384 48.9473 71.991 45.2518 81.4661 45.2518C92.1137 45.2518 97.3841 48.6661 98.0514 55.9913C98.0616 56.1136 98.0445 56.2365 98.0013 56.3525C97.9581 56.4684 97.8896 56.575 97.8 56.6656C97.7105 56.7561 97.6018 56.8288 97.4807 56.879C97.3596 56.9293 97.2286 56.9561 97.0958 56.9578H92.7681C92.551 56.955 92.3411 56.8851 92.172 56.7593C92.0029 56.6334 91.8843 56.4589 91.8351 56.2636C90.8018 52.0115 88.2719 50.653 81.4693 50.653C73.8245 50.653 72.9369 53.1127 72.9369 54.9559C72.9369 57.1882 73.9865 57.8405 84.307 59.1003C94.5205 60.3481 99.373 62.1135 99.373 68.7445C99.373 75.4353 93.3349 79.2655 82.8039 79.2655C68.2431 79.2835 65.1949 73.1163 65.1949 67.9426Z" fill="white"/>
</g>
</g>
<defs>
<filter id="filter0_dd_1352_290" x="0.37904" y="0.0970459" width="142.242" height="142.242" filterUnits="userSpaceOnUse" color-interpolation-filters="sRGB">
<feFlood flood-opacity="0" result="BackgroundImageFix"/>
<feColorMatrix in="SourceAlpha" type="matrix" values="0 0 0 0 0 0 0 0 0 0 0 0 0 0 0 0 0 0 127 0" result="hardAlpha"/>
<feOffset dy="9.12096"/>
<feGaussianBlur stdDeviation="4.56048"/>
<feComposite in2="hardAlpha" operator="out"/>
<feColorMatrix type="matrix" values="0 0 0 0 0.513726 0 0 0 0 0.803922 0 0 0 0 0.160784 0 0 0 0.2 0"/>
<feBlend mode="normal" in2="BackgroundImageFix" result="effect1_dropShadow_1352_290"/>
<feColorMatrix in="SourceAlpha" type="matrix" values="0 0 0 0 0 0 0 0 0 0 0 0 0 0 0 0 0 0 127 0" result="hardAlpha"/>
<feOffset dy="9.12096"/>
<feGaussianBlur stdDeviation="4.56048"/>
<feComposite in2="hardAlpha" operator="out"/>
<feColorMatrix type="matrix" values="0 0 0 0 0.513726 0 0 0 0 0.803922 0 0 0 0 0.160784 0 0 0 0.2 0"/>
<feBlend mode="normal" in2="effect1_dropShadow_1352_290" result="effect2_dropShadow_1352_290"/>
<feBlend mode="normal" in="SourceGraphic" in2="effect2_dropShadow_1352_290" result="shape"/>
</filter>
</defs>
</svg>
