<svg width="144" height="143" viewBox="0 0 144 143" fill="none" xmlns="http://www.w3.org/2000/svg">
<g id="Frame 93" filter="url(#filter0_dd_1352_283)">
<rect x="10" y="0.0970459" width="124" height="124" rx="41.0443" fill="#38BDF8" shape-rendering="crispEdges"/>
<g id="Group">
<path id="Vector" d="M113.892 62.1056C113.892 56.4964 106.941 51.1805 96.2846 47.884C98.7439 36.9072 97.6509 28.174 92.8349 25.3781C91.7249 24.7222 90.4269 24.4115 89.0095 24.4115V28.2603C89.7951 28.2603 90.427 28.4157 90.9564 28.7091C93.2789 30.0553 94.2865 35.1813 93.501 41.7743C93.3131 43.3967 93.0057 45.1053 92.63 46.8485C89.2827 46.0201 85.6281 45.3815 81.7856 44.9672C79.4801 41.7743 77.0892 38.8747 74.6812 36.3376C80.2486 31.1081 85.4744 28.2431 89.0266 28.2431V24.3943C84.3302 24.3943 78.1822 27.7771 71.9658 33.6452C65.7495 27.8116 59.6015 24.4633 54.9051 24.4633V28.3121C58.4402 28.3121 63.6831 31.1599 69.2505 36.3549C66.8596 38.892 64.4687 41.7743 62.1973 44.9672C58.3377 45.3815 54.6831 46.0201 51.3358 46.8658C50.943 45.1398 50.6527 43.4657 50.4478 41.8606C49.6451 35.2676 50.6356 30.1416 52.9411 28.7781C53.4535 28.4675 54.1195 28.3294 54.9051 28.3294V24.4806C53.4706 24.4806 52.1726 24.7912 51.0455 25.4471C46.2466 28.2431 45.1707 36.959 47.647 47.9013C37.0246 51.2151 30.1081 56.5136 30.1081 62.1056C30.1081 67.7149 37.0588 73.0307 47.7153 76.3272C45.2561 87.304 46.3491 96.0372 51.165 98.8332C52.2751 99.489 53.573 99.7997 55.0076 99.7997C59.704 99.7997 65.852 96.4169 72.0683 90.5488C78.2846 96.3824 84.4326 99.7307 89.129 99.7307C90.5636 99.7307 91.8615 99.42 92.9886 98.7641C97.7875 95.9681 98.8634 87.2523 96.3871 76.3099C106.975 73.0134 113.892 67.6976 113.892 62.1056ZM91.6566 50.5937C91.0247 52.8202 90.2391 55.1156 89.351 57.4111C88.6509 56.0304 87.9165 54.6496 87.1139 53.2689C86.3283 51.8882 85.4915 50.542 84.6547 49.2303C87.0797 49.5927 89.4194 50.0414 91.6566 50.5937ZM83.8349 68.9748C82.5028 71.3048 81.1366 73.5139 79.7192 75.5678C77.1746 75.7922 74.5958 75.913 72 75.913C69.4212 75.913 66.8425 75.7922 64.315 75.585C62.8975 73.5312 61.5142 71.3393 60.1821 69.0266C58.8842 66.7656 57.7059 64.4701 56.6299 62.1574C57.6888 59.8447 58.8842 57.5319 60.1651 55.271C61.4971 52.941 62.8633 50.7318 64.2808 48.678C66.8254 48.4536 69.4042 48.3328 72 48.3328C74.5787 48.3328 77.1575 48.4536 79.685 48.6607C81.1025 50.7146 82.4858 52.9065 83.8178 55.2192C85.1158 57.4802 86.2941 59.7756 87.37 62.0884C86.2941 64.4011 85.1157 66.7138 83.8349 68.9748ZM89.351 66.7311C90.2732 69.0438 91.0588 71.3565 91.7078 73.6002C89.4706 74.1525 87.1139 74.6185 84.6717 74.981C85.5085 73.652 86.3454 72.2885 87.1309 70.8905C87.9165 69.5098 88.6509 68.1118 89.351 66.7311ZM72.0341 85.1466C70.4459 83.4898 68.8577 81.643 67.2865 79.6237C68.8235 79.6927 70.3947 79.7445 71.9829 79.7445C73.5882 79.7445 75.1765 79.71 76.7305 79.6237C75.1935 81.643 73.6053 83.4898 72.0341 85.1466ZM59.3282 74.981C56.9032 74.6185 54.5635 74.1698 52.3263 73.6175C52.9582 71.3911 53.7438 69.0956 54.6318 66.8001C55.332 68.1809 56.0664 69.5616 56.869 70.9423C57.6717 72.3231 58.4914 73.6693 59.3282 74.981ZM71.9488 39.0646C73.537 40.7215 75.1252 42.5682 76.6964 44.5875C75.1594 44.5185 73.5882 44.4667 72 44.4667C70.3947 44.4667 68.8064 44.5012 67.2524 44.5875C68.7894 42.5682 70.3776 40.7215 71.9488 39.0646ZM59.3112 49.2303C58.4744 50.5592 57.6375 51.9227 56.852 53.3207C56.0664 54.7014 55.332 56.0822 54.6318 57.4629C53.7096 55.1502 52.9241 52.8374 52.2751 50.5937C54.5123 50.0587 56.869 49.5927 59.3112 49.2303ZM43.8557 70.8388C37.8102 68.2326 33.8994 64.8153 33.8994 62.1056C33.8994 59.3959 37.8102 55.9613 43.8557 53.3725C45.3244 52.7339 46.9297 52.1643 48.5863 51.6293C49.5597 55.0121 50.8406 58.533 52.4288 62.1401C50.8576 65.73 49.5939 69.2337 48.6375 72.5992C46.9468 72.0642 45.3415 71.4774 43.8557 70.8388ZM53.0436 95.5022C50.721 94.1559 49.7134 89.03 50.499 82.4369C50.6869 80.8146 50.9943 79.1059 51.37 77.3627C54.7172 78.1912 58.3719 78.8298 62.2144 79.244C64.5199 82.4369 66.9108 85.3365 69.3188 87.8736C63.7514 93.1031 58.5256 95.9681 54.9734 95.9681C54.2049 95.9509 53.5559 95.7956 53.0436 95.5022ZM93.5522 82.3506C94.3549 88.9437 93.3643 94.0696 91.0588 95.4331C90.5465 95.7438 89.8805 95.8819 89.0949 95.8819C85.5598 95.8819 80.3169 93.0341 74.7495 87.8391C77.1404 85.302 79.5313 82.4197 81.8027 79.2267C85.6622 78.8125 89.3169 78.1739 92.6641 77.3282C93.0569 79.0714 93.3643 80.7455 93.5522 82.3506ZM100.127 70.8388C98.6585 71.4774 97.0531 72.0469 95.3966 72.5819C94.4232 69.1991 93.1423 65.6783 91.5541 62.0711C93.1252 58.4812 94.389 54.9776 95.3454 51.612C97.0361 52.1471 98.6414 52.7339 100.144 53.3725C106.19 55.9786 110.101 59.3959 110.101 62.1056C110.084 64.8153 106.173 68.2499 100.127 70.8388Z" fill="white"/>
<path id="Vector_2" d="M71.9822 69.9927C76.2926 69.9927 79.7868 66.4613 79.7868 62.1052C79.7868 57.7491 76.2926 54.2178 71.9822 54.2178C67.6719 54.2178 64.1777 57.7491 64.1777 62.1052C64.1777 66.4613 67.6719 69.9927 71.9822 69.9927Z" fill="white"/>
</g>
</g>
<defs>
<filter id="filter0_dd_1352_283" x="0.87904" y="0.0970459" width="142.242" height="142.242" filterUnits="userSpaceOnUse" color-interpolation-filters="sRGB">
<feFlood flood-opacity="0" result="BackgroundImageFix"/>
<feColorMatrix in="SourceAlpha" type="matrix" values="0 0 0 0 0 0 0 0 0 0 0 0 0 0 0 0 0 0 127 0" result="hardAlpha"/>
<feOffset dy="9.12096"/>
<feGaussianBlur stdDeviation="4.56048"/>
<feComposite in2="hardAlpha" operator="out"/>
<feColorMatrix type="matrix" values="0 0 0 0 0.027451 0 0 0 0 0.494118 0 0 0 0 0.854902 0 0 0 0.2 0"/>
<feBlend mode="normal" in2="BackgroundImageFix" result="effect1_dropShadow_1352_283"/>
<feColorMatrix in="SourceAlpha" type="matrix" values="0 0 0 0 0 0 0 0 0 0 0 0 0 0 0 0 0 0 127 0" result="hardAlpha"/>
<feOffset dy="9.12096"/>
<feGaussianBlur stdDeviation="4.56048"/>
<feComposite in2="hardAlpha" operator="out"/>
<feColorMatrix type="matrix" values="0 0 0 0 0.0313726 0 0 0 0 0.639216 0 0 0 0 0.901961 0 0 0 0.1 0"/>
<feBlend mode="normal" in2="effect1_dropShadow_1352_283" result="effect2_dropShadow_1352_283"/>
<feBlend mode="normal" in="SourceGraphic" in2="effect2_dropShadow_1352_283" result="shape"/>
</filter>
</defs>
</svg>
